<svg width="99" height="88" viewBox="0 0 99 88" fill="none" xmlns="http://www.w3.org/2000/svg">
<g filter="url(#filter0_d_107_67)">
<rect width="75" height="64" rx="7" transform="matrix(1 0 0 -1 12 72)" fill="#009CF3"/>
<path d="M61.9274 37.6287H75.1979C75.3582 37.6287 75.5152 37.6745 75.6505 37.7605C75.7858 37.8466 75.8937 37.9694 75.9617 38.1146C76.0297 38.2598 76.0549 38.4214 76.0344 38.5804C76.0139 38.7394 75.9485 38.8892 75.8459 39.0124L69.2107 46.9774C69.1315 47.0724 69.0324 47.1488 68.9204 47.2012C68.8084 47.2536 68.6863 47.2808 68.5627 47.2808C68.439 47.2808 68.3169 47.2536 68.2049 47.2012C68.0929 47.1488 67.9939 47.0724 67.9147 46.9774L61.2794 39.0124C61.1768 38.8892 61.1114 38.7394 61.0909 38.5804C61.0704 38.4214 61.0956 38.2598 61.1636 38.1146C61.2316 37.9694 61.3396 37.8466 61.4748 37.7605C61.6101 37.6745 61.7671 37.6287 61.9274 37.6287ZM24.8024 44.3787H38.0729C38.2332 44.3786 38.3902 44.3329 38.5255 44.2468C38.6608 44.1608 38.7687 44.038 38.8367 43.8928C38.9047 43.7476 38.9299 43.586 38.9094 43.427C38.8889 43.268 38.8235 43.1181 38.7209 42.9949L32.0857 35.0299C32.0065 34.935 31.9074 34.8586 31.7954 34.8062C31.6834 34.7537 31.5613 34.7266 31.4377 34.7266C31.314 34.7266 31.1919 34.7537 31.0799 34.8062C30.9679 34.8586 30.8689 34.935 30.7897 35.0299L24.1544 42.9949C24.0518 43.1181 23.9864 43.268 23.9659 43.427C23.9454 43.586 23.9706 43.7476 24.0386 43.8928C24.1066 44.038 24.2146 44.1608 24.3498 44.2468C24.4851 44.3329 24.6421 44.3786 24.8024 44.3787Z" fill="white"/>
<path fill-rule="evenodd" clip-rule="evenodd" d="M50.0011 24.1254C44.7631 24.1254 40.0786 26.5115 36.9838 30.2611C36.8456 30.4402 36.6728 30.5897 36.4756 30.7007C36.2785 30.8117 36.061 30.882 35.8362 30.9072C35.6114 30.9325 35.3838 30.9123 35.1669 30.8479C34.9501 30.7834 34.7484 30.676 34.5739 30.5321C34.3993 30.3881 34.2555 30.2105 34.151 30.0099C34.0465 29.8092 33.9834 29.5896 33.9655 29.3641C33.9476 29.1385 33.9752 28.9117 34.0466 28.6971C34.1181 28.4824 34.232 28.2843 34.3816 28.1146C36.8528 25.1228 40.1312 22.9036 43.8271 21.7212C47.523 20.5387 51.4807 20.4427 55.2296 21.4446C58.9785 22.4464 62.3607 24.5039 64.974 27.3724C67.5873 30.2409 69.3218 33.7996 69.971 37.6254H66.5386C65.7594 33.8143 63.688 30.3893 60.6747 27.9295C57.6614 25.4696 53.891 24.1258 50.0011 24.1254ZM33.4636 44.3754C34.1025 47.496 35.6113 50.3721 37.8156 52.6716C40.0199 54.971 42.8298 56.5999 45.9206 57.3701C49.0115 58.1402 52.2571 58.0202 55.2826 57.0239C58.3081 56.0275 60.9901 54.1956 63.0185 51.7396C63.1567 51.5605 63.3295 51.411 63.5266 51.3C63.7238 51.189 63.9412 51.1188 64.166 51.0935C64.3909 51.0682 64.6185 51.0884 64.8353 51.1528C65.0522 51.2173 65.2539 51.3247 65.4284 51.4687C65.6029 51.6126 65.7467 51.7902 65.8512 51.9909C65.9557 52.1915 66.0188 52.4111 66.0368 52.6366C66.0547 52.8622 66.0271 53.089 65.9556 53.3036C65.8841 53.5183 65.7702 53.7164 65.6206 53.8861C63.1495 56.878 59.871 59.0971 56.1751 60.2795C52.4793 61.462 48.5215 61.558 44.7727 60.5562C41.0238 59.5543 37.6416 57.4968 35.0282 54.6283C32.4149 51.7598 30.6805 48.2011 30.0312 44.3754H33.4636Z" fill="white"/>
</g>
<defs>
<filter id="filter0_d_107_67" x="0" y="0" width="99" height="88" filterUnits="userSpaceOnUse" color-interpolation-filters="sRGB">
<feFlood flood-opacity="0" result="BackgroundImageFix"/>
<feColorMatrix in="SourceAlpha" type="matrix" values="0 0 0 0 0 0 0 0 0 0 0 0 0 0 0 0 0 0 127 0" result="hardAlpha"/>
<feOffset dy="4"/>
<feGaussianBlur stdDeviation="6"/>
<feComposite in2="hardAlpha" operator="out"/>
<feColorMatrix type="matrix" values="0 0 0 0 0 0 0 0 0 0 0 0 0 0 0 0 0 0 0.5 0"/>
<feBlend mode="normal" in2="BackgroundImageFix" result="effect1_dropShadow_107_67"/>
<feBlend mode="normal" in="SourceGraphic" in2="effect1_dropShadow_107_67" result="shape"/>
</filter>
</defs>
</svg>
